<svg width="214.345" xmlns="http://www.w3.org/2000/svg" height="148" viewBox="3395 652 214.345 148" style="-webkit-print-color-adjust::exact" xmlns:xlink="http://www.w3.org/1999/xlink" fill="none" version="1.1">
  <g id="shape-4d40bde6-1140-538b-a452-becee3b04323" style="opacity:1" rx="0" ry="0">
    <g id="shape-0f741eca-611a-5a23-86d1-7007911937d2" style="opacity:1">
      <defs>
        <linearGradient id="fill-color-gradient-render-927-0" x1="0.0008752219513324389" y1="0.13222786269666487" x2="0.5311226484229434" y2="1.0000164740415742" gradientTransform="">
          <stop offset="0" stop-color="#3f0059" stop-opacity="1">
          </stop>
          <stop offset="0.5288461446762085" stop-color="#2f398c" stop-opacity="1">
          </stop>
          <stop offset="1" stop-color="#5ac5f2" stop-opacity="1">
          </stop>
        </linearGradient>
        <pattern patternUnits="userSpaceOnUse" x="3469.4634337622183" y="663.9776611328125" width="64.7081970971567" height="86.79644775390625" patternTransform="matrix(1.000000, 0.000000, 0.000000, 1.000000, 0.000000, 0.000000)" id="fill-0-render-927">
          <g>
            <rect width="64.7081970971567" height="86.79644775390625" style="fill:url(#fill-color-gradient-render-927-0);fill-opacity:1">
            </rect>
          </g>
        </pattern>
      </defs>
      <g class="fills" id="fills-0f741eca-611a-5a23-86d1-7007911937d2">
        <path d="M3520.861328125,676.54345703125C3521.712646484375,672.5313720703125,3523.263916015625,669.3615112304688,3526.803466796875,666.9237060546875C3528.328369140625,665.8743286132812,3532.279541015625,664.683349609375,3534.166015625,663.9776611328125L3534.171630859375,692.71484375L3534.16455078125,701.804931640625C3534.145263671875,706.7589111328125,3534.412353515625,711.290283203125,3529.4775390625,714.2455444335938C3528.161376953125,715.181884765625,3524.51904296875,716.2332763671875,3522.85498046875,716.8759155273438C3517.985595703125,718.757568359375,3512.3828125,720.3802490234375,3507.603759765625,722.3128662109375L3507.58984375,737.6797485351562C3507.587158203125,742.83642578125,3508.70849609375,750.3792114257812,3500.8017578125,750.7741088867188C3500.0810546875,750.7664184570312,3499.19970703125,750.6384887695312,3498.523193359375,750.4141845703125C3494.85009765625,749.196044921875,3491.23388671875,747.8106079101562,3487.569580078125,746.559814453125C3486.69091796875,746.2598266601562,3485.169921875,745.8070068359375,3484.373779296875,745.4400024414062C3483.322021484375,744.9549560546875,3480.525634765625,744.2930908203125,3479.67822265625,743.7349853515625C3471.8232421875,741.4508056640625,3469.14990234375,738.0070190429688,3469.4921875,729.7451782226562C3469.591796875,727.3419799804688,3469.539306640625,724.4801025390625,3469.548583984375,722.0314331054688L3469.533447265625,698.3939208984375L3469.522216796875,685.7186889648438C3469.510986328125,679.1412353515625,3468.747802734375,673.0865478515625,3476.162353515625,670.03271484375C3473.79736328125,672.3131103515625,3472.723388671875,675.302001953125,3475.265380859375,677.8737182617188C3476.927734375,679.5552978515625,3481.78076171875,680.8438720703125,3484.156005859375,681.6514282226562L3484.42919921875,681.7396850585938C3485.129638671875,681.6503295898438,3492.738525390625,678.8390502929688,3493.883056640625,678.4252319335938L3506.385009765625,673.96826171875C3507.357421875,673.62109375,3512.50390625,671.9619140625,3512.90185546875,671.3521118164062L3512.982421875,671.3549194335938C3514.45849609375,671.2222290039062,3514.912109375,670.9281005859375,3516.488525390625,671.3072509765625C3519.21533203125,671.9630126953125,3520.3701171875,673.9342651367188,3520.861328125,676.54345703125Z" fill="url(#fill-0-render-927)" fill-rule="nonzero">
        </path>
      </g>
    </g>
    <g id="shape-084c2472-1233-50ac-93cd-4f0c211971be" style="opacity:1">
      <g class="fills" id="fills-084c2472-1233-50ac-93cd-4f0c211971be">
        <path d="M3476.1630859375,670.0328369140625C3487.7763671875,665.7288818359375,3499.71728515625,661.56689453125,3511.395751953125,657.4155883789062L3521.04150390625,653.9412841796875C3524.15234375,652.8212280273438,3527.33984375,651.0962524414062,3530.5703125,652.5686645507812C3532.061767578125,653.238525390625,3533.21240234375,654.4922485351562,3533.753662109375,656.0364379882812C3534.407470703125,657.864501953125,3534.193359375,661.5319213867188,3534.173828125,663.6069946289062C3531.005859375,664.7872314453125,3527.431640625,666.7152709960938,3524.36669921875,665.274658203125C3522.894775390625,664.571044921875,3521.7705078125,663.3013305664062,3521.24609375,661.75390625C3521.134765625,661.4283447265625,3521.035888671875,661.0984497070312,3520.94970703125,660.764892578125C3520.43359375,664.5872192382812,3519.449951171875,666.9727172851562,3516.33056640625,669.5751953125C3515.412353515625,670.3407592773438,3513.531005859375,670.9420166015625,3513.058349609375,671.2889404296875C3513.02685546875,671.3120727539062,3513.00146484375,671.3340454101562,3512.983154296875,671.3549194335938C3514.4599609375,671.2222290039062,3514.91357421875,670.9281005859375,3516.489990234375,671.3072509765625C3519.216796875,671.9630126953125,3520.37158203125,673.9342651367188,3520.86279296875,676.54345703125C3521.714111328125,672.5313720703125,3523.265380859375,669.3615112304688,3526.804931640625,666.9237060546875C3528.32958984375,665.8743286132812,3532.281005859375,664.683349609375,3534.16748046875,663.9776611328125L3534.173095703125,692.71484375L3534.166015625,701.804931640625C3534.146484375,706.7589111328125,3534.413818359375,711.290283203125,3529.478759765625,714.2455444335938C3528.16259765625,715.181884765625,3524.520263671875,716.2332763671875,3522.8564453125,716.8759155273438C3517.98681640625,718.757568359375,3512.38427734375,720.3801879882812,3507.605224609375,722.3128662109375C3507.456298828125,718.7745361328125,3507.557861328125,714.6341552734375,3507.557861328125,711.0519409179688C3507.6552734375,707.7662353515625,3507.52734375,704.4114990234375,3507.593994140625,701.1180419921875C3507.623291015625,699.6600341796875,3507.642822265625,698.0059814453125,3507.4423828125,696.5738525390625C3507.2685546875,695.3259887695312,3506.9052734375,694.1119995117188,3506.3642578125,692.9742431640625C3505.4931640625,691.1257934570312,3504.122802734375,689.5581665039062,3502.40869140625,688.447998046875C3500.373291015625,687.101318359375,3496.9970703125,686.1082763671875,3494.615234375,685.2832641601562C3491.67041015625,684.275390625,3488.73095703125,683.2516479492188,3485.797119140625,682.212158203125L3484.4306640625,681.7396850585938L3484.15673828125,681.6514892578125C3481.781494140625,680.8439331054688,3476.928466796875,679.5553588867188,3475.26611328125,677.873779296875C3472.72412109375,675.3020629882812,3473.798095703125,672.313232421875,3476.1630859375,670.0328369140625M3484.429931640625,681.73974609375C3484.511962890625,681.729248046875,3484.68896484375,681.681396484375,3484.939453125,681.6044311523438C3485.527587890625,681.4234619140625,3486.52099609375,681.08154296875,3487.64013671875,680.6856689453125C3488.6796875,680.3179321289062,3489.82763671875,679.9036254882812,3490.8603515625,679.5283813476562C3491.980224609375,679.1215209960938,3492.964599609375,678.7605590820312,3493.527587890625,678.554931640625C3493.678466796875,678.4998779296875,3493.798828125,678.4559936523438,3493.8837890625,678.42529296875L3506.386474609375,673.96826171875C3506.54150390625,673.9127197265625,3506.804443359375,673.8234252929688,3507.137939453125,673.7101440429688C3507.657958984375,673.533447265625,3508.349853515625,673.29833984375,3509.07373046875,673.0418090820312C3509.74072265625,672.8053588867188,3510.43505859375,672.5506591796875,3511.047607421875,672.3067016601562C3511.919921875,671.9591674804688,3512.626220703125,671.63330078125,3512.8515625,671.4124145507812M3512.902587890625,671.3521728515625C3512.89013671875,671.3712768554688,3512.873046875,671.391357421875,3512.8515625,671.4124145507812M3512.983154296875,671.3549194335938C3512.983154296875,671.3549194335938,3512.983154296875,671.35498046875,3512.983154296875,671.35498046875L3512.903076171875,671.3521728515625L3512.903076171875,671.3521728515625" style="fill:#5ac5f2;fill-opacity:1">
        </path>
      </g>
    </g>
    <g id="shape-629608d1-82e1-5193-b834-c96f36cccf98" style="opacity:1">
      <g class="fills" id="fills-629608d1-82e1-5193-b834-c96f36cccf98">
        <path d="M3484.156494140625,681.6511840820312C3484.56787109375,681.2412719726562,3512.2080078125,671.2877807617188,3512.90234375,671.3518676757812C3512.50439453125,671.961669921875,3507.358154296875,673.620849609375,3506.3857421875,673.968017578125L3493.883544921875,678.4249877929688C3492.7392578125,678.8388061523438,3485.130126953125,681.6500854492188,3484.429931640625,681.7394409179688L3484.156494140625,681.6511840820312Z" fill-rule="nonzero" style="fill:#fdfeff;fill-opacity:1">
        </path>
      </g>
    </g>
    <g id="shape-bc199ca4-2ac8-58ad-aaf5-95d58f881567" style="opacity:1">
      <g class="fills" id="fills-bc199ca4-2ac8-58ad-aaf5-95d58f881567">
        <path d="M3395.14404296875,766.5214233398438C3397.73486328125,766.5675659179688,3400.405029296875,766.5136108398438,3403.0166015625,766.5184936523438C3407.424560546875,766.4993896484375,3412.02099609375,766.1734008789062,3415.47021484375,769.5225830078125C3419.295654296875,773.2368774414062,3419.346435546875,780.3081665039062,3415.4951171875,784.0449829101562C3412.697265625,786.7600708007812,3409.38671875,787.0903930664062,3405.6865234375,787.0625610351562L3400.448974609375,787.0792846679688C3400.314208984375,788.6640014648438,3400.369873046875,790.8007202148438,3400.3671875,792.4216918945312C3400.363525390625,794.7186889648438,3400.328857421875,797.1815185546875,3400.45068359375,799.4631958007812C3398.65185546875,799.4199829101562,3396.85205078125,799.4227294921875,3395.05322265625,799.472900390625L3395.059326171875,777.8369750976562C3395.056884765625,774.8242797851562,3394.882080078125,769.28369140625,3395.14404296875,766.5214233398438ZM3400.3974609375,782.4197998046875C3404.08984375,782.1675415039062,3408.929443359375,783.2310180664062,3411.521484375,780.8239135742188C3413.516357421875,778.8892822265625,3413.661865234375,774.94970703125,3411.72998046875,772.9495239257812C3409.337646484375,770.4728393554688,3403.78564453125,771.181884765625,3400.421875,771.2086181640625C3400.365966796875,774.9452514648438,3400.35791015625,778.6830444335938,3400.3974609375,782.4197998046875Z" fill-rule="nonzero" style="fill:#489ff4;fill-opacity:1">
        </path>
      </g>
    </g>
    <g id="shape-48a2ce3b-e378-514a-9ff2-0c0c6cbd5cdd" style="opacity:1">
      <g class="fills" id="fills-48a2ce3b-e378-514a-9ff2-0c0c6cbd5cdd">
        <path d="M3527.0048828125,766.5645751953125L3534.62353515625,766.5442504882812C3539.135498046875,766.5343627929688,3543.84912109375,766.0869140625,3547.389892578125,769.563232421875C3551.13671875,773.2327880859375,3551.17822265625,780.2958374023438,3547.431640625,783.9838256835938C3544.639404296875,786.7310180664062,3541.318359375,787.0571899414062,3537.642578125,787.0557861328125L3532.252685546875,787.0655517578125C3532.38623046875,790.9347534179688,3532.26953125,795.4994506835938,3532.2666015625,799.4146118164062L3527.0703125,799.4076538085938L3527.0048828125,766.5645751953125ZM3532.265380859375,782.4144287109375C3536.280517578125,782.1231689453125,3540.525390625,783.2841796875,3543.45947265625,780.8087768554688C3545.53662109375,778.4044799804688,3545.6328125,774.743408203125,3543.26904296875,772.6071166992188C3540.970458984375,770.5289916992188,3535.309326171875,771.2698974609375,3532.279296875,771.2162475585938L3532.265380859375,782.4144287109375Z" fill-rule="nonzero" style="fill:#2f2f82;fill-opacity:1">
        </path>
      </g>
    </g>
    <g id="shape-aa9348de-bce5-5fc5-b1b6-a4e1c7108c5f" style="opacity:1">
      <g class="fills" id="fills-aa9348de-bce5-5fc5-b1b6-a4e1c7108c5f">
        <path d="M3432.247314453125,774.9343872070312C3439.13525390625,774.6088256835938,3444.989013671875,779.9259033203125,3445.338134765625,786.8251953125C3445.687255859375,793.7244873046875,3440.400390625,799.6077270507812,3433.5146484375,799.9812622070312C3426.5947265625,800.3575439453125,3420.687255859375,795.029052734375,3420.33642578125,788.0949096679688C3419.985595703125,781.1607666015625,3425.324951171875,775.2616577148438,3432.247314453125,774.9343872070312ZM3433.58056640625,795.250732421875C3443.184326171875,793.6575927734375,3441.689697265625,779.1063232421875,3432.21240234375,779.712646484375C3422.74609375,781.0465087890625,3423.64208984375,795.6214599609375,3433.58056640625,795.250732421875Z" fill-rule="nonzero" style="fill:#489ff4;fill-opacity:1">
        </path>
      </g>
    </g>
    <g id="shape-3623dda8-61a2-5100-becb-4483339250af" style="opacity:1">
      <g class="fills" id="fills-3623dda8-61a2-5100-becb-4483339250af">
        <path d="M3471.48583984375,774.992919921875C3473.962890625,775.09326171875,3476.069091796875,775.6725463867188,3477.8984375,777.4309692382812C3481.0966796875,780.5056762695312,3480.5439453125,784.9533081054688,3480.537841796875,788.993896484375C3480.51611328125,792.4826049804688,3480.521728515625,795.9712524414062,3480.5546875,799.4599609375C3478.897705078125,799.416748046875,3477.15478515625,799.4418334960938,3475.49072265625,799.4390258789062C3475.62353515625,797.23681640625,3475.491943359375,794.5927734375,3475.5302734375,792.3292846679688C3475.47900390625,789.9305419921875,3475.65966796875,787.4913940429688,3475.505859375,785.0982055664062C3475.21337890625,780.5488891601562,3471.880859375,778.6282348632812,3467.803955078125,780.2116088867188C3464.28564453125,782.140625,3465.017822265625,786.69970703125,3465.021484375,790.1828002929688C3465.019287109375,793.275634765625,3465.0341796875,796.3684692382812,3465.06640625,799.4599609375C3463.40673828125,799.416748046875,3461.67822265625,799.4432373046875,3460.012939453125,799.444580078125L3460.01611328125,775.5391235351562C3461.52685546875,775.482421875,3463.249267578125,775.5151977539062,3464.7763671875,775.5087890625C3464.837646484375,776.2919311523438,3464.786865234375,777.5675659179688,3464.779052734375,778.3870849609375C3466.685302734375,775.796875,3468.373291015625,775.2025756835938,3471.48583984375,774.992919921875Z" fill-rule="nonzero" style="fill:#489ff4;fill-opacity:1">
        </path>
      </g>
    </g>
    <g id="shape-b20e17d0-7c30-5bda-9c4e-12b6e290d121" style="opacity:1">
      <g class="fills" id="fills-b20e17d0-7c30-5bda-9c4e-12b6e290d121">
        <path d="M3565.247802734375,775.5040283203125C3566.899169921875,775.5466918945312,3568.663330078125,775.513671875,3570.322998046875,775.5114135742188C3570.412109375,780.5114135742188,3570.157470703125,786.1144409179688,3570.46923828125,791.094482421875C3570.914306640625,793.7468872070312,3572.965087890625,795.3427734375,3575.494384765625,795.271728515625C3581.684326171875,795.1002807617188,3580.860595703125,789.1654663085938,3580.83984375,784.7764282226562L3580.82861328125,775.5108642578125L3585.8232421875,775.5211791992188C3585.771728515625,777.9259033203125,3585.801025390625,780.4291381835938,3585.79833984375,782.841796875L3585.799560546875,799.4321899414062C3584.258056640625,799.3820190429688,3582.598388671875,799.423828125,3581.047119140625,799.43359375L3581.06787109375,796.4940795898438C3579.62939453125,798.8607177734375,3577.287841796875,799.8126831054688,3574.61376953125,799.9116821289062C3570.6806640625,800.3019409179688,3566.24658203125,797.273193359375,3565.660888671875,793.1531372070312C3564.887451171875,787.7047729492188,3565.3701171875,781.0884399414062,3565.247802734375,775.5040283203125Z" fill-rule="nonzero" style="fill:#2f54a8;fill-opacity:1">
        </path>
      </g>
    </g>
    <g id="shape-afd55328-49cf-5355-965e-a5dc34436641" style="opacity:1">
      <g class="fills" id="fills-afd55328-49cf-5355-965e-a5dc34436641">
        <path d="M3502.984619140625,775.4931030273438C3509.091064453125,775.6150512695312,3515.489501953125,775.5234985351562,3521.612548828125,775.5137329101562C3521.59033203125,776.8749389648438,3521.5859375,778.2362060546875,3521.5986328125,779.5979614257812C3517.68359375,784.628173828125,3513.2578125,789.8981323242188,3509.2119140625,794.8628540039062L3521.655517578125,794.8530883789062L3521.65966796875,799.4707641601562C3515.37255859375,799.3104858398438,3508.644287109375,799.4317626953125,3502.3251953125,799.4359130859375L3502.33642578125,795.2559204101562L3514.91357421875,780.0607299804688C3511.1708984375,780.1820068359375,3506.75634765625,780.0844116210938,3502.97216796875,780.0844116210938L3502.984619140625,775.4931030273438Z" fill-rule="nonzero" style="fill:#489ff4;fill-opacity:1">
        </path>
      </g>
    </g>
    <g id="shape-92a013c7-f6f5-5ff2-87a7-3ff266da9375" style="opacity:1">
      <g class="fills" id="fills-92a013c7-f6f5-5ff2-87a7-3ff266da9375">
        <path d="M3598.210205078125,775.1166381835938C3603.1923828125,774.4420166015625,3607.22412109375,776.4946899414062,3609.2861328125,781.1078491210938C3607.999267578125,781.7197265625,3606.7080078125,782.3204345703125,3605.411376953125,782.9086303710938C3604.24267578125,780.7705688476562,3602.65673828125,779.3056640625,3600.085693359375,779.1885986328125C3598.251953125,779.10498046875,3596.15380859375,779.8826904296875,3596.242919921875,782.0918579101562C3596.3193359375,783.9971923828125,3599.15478515625,784.751220703125,3600.6337890625,785.158203125C3606.926513671875,786.2955932617188,3612.296875,790.9996337890625,3607.50244140625,797.33447265625C3606.141845703125,799.1338500976562,3602.953125,799.8460693359375,3600.56005859375,799.9227294921875C3595.7197265625,799.9310913085938,3591.949462890625,797.8167114257812,3590.110107421875,793.2520141601562L3593.987548828125,791.4595947265625C3595.519287109375,794.3823852539062,3598.161376953125,796.438232421875,3601.514404296875,795.748291015625C3605.36962890625,794.953857421875,3605.227783203125,791.0902099609375,3601.30859375,790.08251953125C3597.81640625,789.0650634765625,3592.447509765625,788.218994140625,3591.534912109375,783.9400634765625C3590.48291015625,779.0115966796875,3593.57568359375,775.8359375,3598.210205078125,775.1166381835938Z" fill-rule="nonzero" style="fill:#3773c7;fill-opacity:1">
        </path>
      </g>
    </g>
    <g id="shape-0bfdcfa2-7e25-5794-a405-2ef5533ac253" style="opacity:1">
      <g class="fills" id="fills-0bfdcfa2-7e25-5794-a405-2ef5533ac253">
        <path d="M3488.20556640625,770.05224609375L3493.2724609375,770.0531005859375C3493.263427734375,771.8710327148438,3493.263916015625,773.68896484375,3493.274169921875,775.5067138671875L3498.694580078125,775.5288696289062C3498.672607421875,777.032958984375,3498.695068359375,778.5870361328125,3498.69775390625,780.0950927734375L3493.253173828125,780.0895385742188C3493.290283203125,783.6535034179688,3493.178955078125,787.2508544921875,3493.239501953125,790.8162231445312C3493.313232421875,795.1550903320312,3495.24853515625,795.35302734375,3498.86572265625,795.1258544921875L3498.858154296875,798.80126953125L3498.85546875,799.3267822265625C3498.421875,799.6640625,3497.185791015625,799.6626586914062,3496.6328125,799.6654663085938C3494.3388671875,799.6849365234375,3492.025634765625,799.3351440429688,3490.33056640625,797.6290893554688C3487.719482421875,795.003173828125,3488.2158203125,790.884521484375,3488.23486328125,787.4808349609375L3488.2294921875,780.088134765625L3483.955078125,780.0895385742188C3483.936279296875,778.5703125,3483.955810546875,777.0496826171875,3484.013671875,775.5301513671875C3487.99951171875,775.4096069335938,3488.30126953125,773.5965576171875,3488.20556640625,770.05224609375Z" fill-rule="nonzero" style="fill:#489ff4;fill-opacity:1">
        </path>
      </g>
    </g>
    <g id="shape-4e6b204c-8260-5be9-8271-6607c27558ba" style="opacity:1">
      <g class="fills" id="fills-4e6b204c-8260-5be9-8271-6607c27558ba">
        <path d="M3554.97802734375,765.99267578125L3560.035400390625,765.980712890625C3560.181396484375,774.5281982421875,3559.930908203125,783.1630249023438,3560.021484375,791.7195434570312C3560.04638671875,794.08203125,3560.15625,797.1121826171875,3559.989501953125,799.4286499023438C3558.36865234375,799.3854370117188,3556.636474609375,799.413330078125,3555.00732421875,799.4105224609375L3554.97802734375,765.99267578125Z" fill-rule="nonzero" style="fill:#2e4499;fill-opacity:1">
        </path>
      </g>
    </g>
    <g id="shape-604a96ce-264c-5c7d-8691-fdc33aec31fb" style="opacity:1">
      <g class="fills" id="fills-604a96ce-264c-5c7d-8691-fdc33aec31fb">
        <path d="M3449.187255859375,775.5132446289062L3454.220947265625,775.5232543945312C3454.390380859375,777.19140625,3454.272705078125,781.57763671875,3454.271240234375,783.4439697265625L3454.27978515625,799.4642944335938C3452.60693359375,799.4085083007812,3450.865234375,799.4447631835938,3449.186279296875,799.4559326171875L3449.187255859375,775.5132446289062Z" fill-rule="nonzero" style="fill:#489ff4;fill-opacity:1">
        </path>
      </g>
    </g>
    <g id="shape-0870ab3f-d8bb-58a7-8930-9da90876c33f" style="opacity:1">
      <g class="fills" id="fills-0870ab3f-d8bb-58a7-8930-9da90876c33f">
        <path d="M3449.178466796875,766.548828125L3454.203369140625,766.5291748046875C3454.369384765625,767.97314453125,3454.282470703125,770.7674560546875,3454.278564453125,772.311767578125C3452.59228515625,772.2918090820312,3450.882080078125,772.3048095703125,3449.193603515625,772.3026733398438C3449.21142578125,770.4033813476562,3449.18408203125,768.4523315429688,3449.178466796875,766.548828125Z" fill-rule="nonzero" style="fill:#489ff4;fill-opacity:1">
        </path>
      </g>
    </g>
  </g>
  <g id="shape-0f741eca-611a-5a23-86d1-7007911937d2" style="opacity:1">
    <defs>
      <linearGradient id="fill-color-gradient-render-941-0" x1="0.0008752219513324389" y1="0.13222786269666487" x2="0.5311226484229434" y2="1.0000164740415742" gradientTransform="">
        <stop offset="0" stop-color="#3f0059" stop-opacity="1">
        </stop>
        <stop offset="0.5288461446762085" stop-color="#2f398c" stop-opacity="1">
        </stop>
        <stop offset="1" stop-color="#5ac5f2" stop-opacity="1">
        </stop>
      </linearGradient>
      <pattern patternUnits="userSpaceOnUse" x="3469.4634337622183" y="663.9776611328125" width="64.7081970971567" height="86.79644775390625" patternTransform="matrix(1.000000, 0.000000, 0.000000, 1.000000, 0.000000, 0.000000)" id="fill-0-render-941">
        <g>
          <rect width="64.7081970971567" height="86.79644775390625" style="fill:url(#fill-color-gradient-render-941-0);fill-opacity:1">
          </rect>
        </g>
      </pattern>
    </defs>
    <g class="fills" id="fills-0f741eca-611a-5a23-86d1-7007911937d2">
      <path d="M3520.861328125,676.54345703125C3521.712646484375,672.5313720703125,3523.263916015625,669.3615112304688,3526.803466796875,666.9237060546875C3528.328369140625,665.8743286132812,3532.279541015625,664.683349609375,3534.166015625,663.9776611328125L3534.171630859375,692.71484375L3534.16455078125,701.804931640625C3534.145263671875,706.7589111328125,3534.412353515625,711.290283203125,3529.4775390625,714.2455444335938C3528.161376953125,715.181884765625,3524.51904296875,716.2332763671875,3522.85498046875,716.8759155273438C3517.985595703125,718.757568359375,3512.3828125,720.3802490234375,3507.603759765625,722.3128662109375L3507.58984375,737.6797485351562C3507.587158203125,742.83642578125,3508.70849609375,750.3792114257812,3500.8017578125,750.7741088867188C3500.0810546875,750.7664184570312,3499.19970703125,750.6384887695312,3498.523193359375,750.4141845703125C3494.85009765625,749.196044921875,3491.23388671875,747.8106079101562,3487.569580078125,746.559814453125C3486.69091796875,746.2598266601562,3485.169921875,745.8070068359375,3484.373779296875,745.4400024414062C3483.322021484375,744.9549560546875,3480.525634765625,744.2930908203125,3479.67822265625,743.7349853515625C3471.8232421875,741.4508056640625,3469.14990234375,738.0070190429688,3469.4921875,729.7451782226562C3469.591796875,727.3419799804688,3469.539306640625,724.4801025390625,3469.548583984375,722.0314331054688L3469.533447265625,698.3939208984375L3469.522216796875,685.7186889648438C3469.510986328125,679.1412353515625,3468.747802734375,673.0865478515625,3476.162353515625,670.03271484375C3473.79736328125,672.3131103515625,3472.723388671875,675.302001953125,3475.265380859375,677.8737182617188C3476.927734375,679.5552978515625,3481.78076171875,680.8438720703125,3484.156005859375,681.6514282226562L3484.42919921875,681.7396850585938C3485.129638671875,681.6503295898438,3492.738525390625,678.8390502929688,3493.883056640625,678.4252319335938L3506.385009765625,673.96826171875C3507.357421875,673.62109375,3512.50390625,671.9619140625,3512.90185546875,671.3521118164062L3512.982421875,671.3549194335938C3514.45849609375,671.2222290039062,3514.912109375,670.9281005859375,3516.488525390625,671.3072509765625C3519.21533203125,671.9630126953125,3520.3701171875,673.9342651367188,3520.861328125,676.54345703125Z" fill="url(#fill-0-render-941)" fill-rule="nonzero">
      </path>
    </g>
  </g>
  <g id="shape-084c2472-1233-50ac-93cd-4f0c211971be" style="opacity:1">
    <g class="fills" id="fills-084c2472-1233-50ac-93cd-4f0c211971be">
      <path d="M3476.1630859375,670.0328369140625C3487.7763671875,665.7288818359375,3499.71728515625,661.56689453125,3511.395751953125,657.4155883789062L3521.04150390625,653.9412841796875C3524.15234375,652.8212280273438,3527.33984375,651.0962524414062,3530.5703125,652.5686645507812C3532.061767578125,653.238525390625,3533.21240234375,654.4922485351562,3533.753662109375,656.0364379882812C3534.407470703125,657.864501953125,3534.193359375,661.5319213867188,3534.173828125,663.6069946289062C3531.005859375,664.7872314453125,3527.431640625,666.7152709960938,3524.36669921875,665.274658203125C3522.894775390625,664.571044921875,3521.7705078125,663.3013305664062,3521.24609375,661.75390625C3521.134765625,661.4283447265625,3521.035888671875,661.0984497070312,3520.94970703125,660.764892578125C3520.43359375,664.5872192382812,3519.449951171875,666.9727172851562,3516.33056640625,669.5751953125C3515.412353515625,670.3407592773438,3513.531005859375,670.9420166015625,3513.058349609375,671.2889404296875C3513.02685546875,671.3120727539062,3513.00146484375,671.3340454101562,3512.983154296875,671.3549194335938C3514.4599609375,671.2222290039062,3514.91357421875,670.9281005859375,3516.489990234375,671.3072509765625C3519.216796875,671.9630126953125,3520.37158203125,673.9342651367188,3520.86279296875,676.54345703125C3521.714111328125,672.5313720703125,3523.265380859375,669.3615112304688,3526.804931640625,666.9237060546875C3528.32958984375,665.8743286132812,3532.281005859375,664.683349609375,3534.16748046875,663.9776611328125L3534.173095703125,692.71484375L3534.166015625,701.804931640625C3534.146484375,706.7589111328125,3534.413818359375,711.290283203125,3529.478759765625,714.2455444335938C3528.16259765625,715.181884765625,3524.520263671875,716.2332763671875,3522.8564453125,716.8759155273438C3517.98681640625,718.757568359375,3512.38427734375,720.3801879882812,3507.605224609375,722.3128662109375C3507.456298828125,718.7745361328125,3507.557861328125,714.6341552734375,3507.557861328125,711.0519409179688C3507.6552734375,707.7662353515625,3507.52734375,704.4114990234375,3507.593994140625,701.1180419921875C3507.623291015625,699.6600341796875,3507.642822265625,698.0059814453125,3507.4423828125,696.5738525390625C3507.2685546875,695.3259887695312,3506.9052734375,694.1119995117188,3506.3642578125,692.9742431640625C3505.4931640625,691.1257934570312,3504.122802734375,689.5581665039062,3502.40869140625,688.447998046875C3500.373291015625,687.101318359375,3496.9970703125,686.1082763671875,3494.615234375,685.2832641601562C3491.67041015625,684.275390625,3488.73095703125,683.2516479492188,3485.797119140625,682.212158203125L3484.4306640625,681.7396850585938L3484.15673828125,681.6514892578125C3481.781494140625,680.8439331054688,3476.928466796875,679.5553588867188,3475.26611328125,677.873779296875C3472.72412109375,675.3020629882812,3473.798095703125,672.313232421875,3476.1630859375,670.0328369140625M3484.429931640625,681.73974609375C3484.511962890625,681.729248046875,3484.68896484375,681.681396484375,3484.939453125,681.6044311523438C3485.527587890625,681.4234619140625,3486.52099609375,681.08154296875,3487.64013671875,680.6856689453125C3488.6796875,680.3179321289062,3489.82763671875,679.9036254882812,3490.8603515625,679.5283813476562C3491.980224609375,679.1215209960938,3492.964599609375,678.7605590820312,3493.527587890625,678.554931640625C3493.678466796875,678.4998779296875,3493.798828125,678.4559936523438,3493.8837890625,678.42529296875L3506.386474609375,673.96826171875C3506.54150390625,673.9127197265625,3506.804443359375,673.8234252929688,3507.137939453125,673.7101440429688C3507.657958984375,673.533447265625,3508.349853515625,673.29833984375,3509.07373046875,673.0418090820312C3509.74072265625,672.8053588867188,3510.43505859375,672.5506591796875,3511.047607421875,672.3067016601562C3511.919921875,671.9591674804688,3512.626220703125,671.63330078125,3512.8515625,671.4124145507812M3512.902587890625,671.3521728515625C3512.89013671875,671.3712768554688,3512.873046875,671.391357421875,3512.8515625,671.4124145507812M3512.983154296875,671.3549194335938C3512.983154296875,671.3549194335938,3512.983154296875,671.35498046875,3512.983154296875,671.35498046875L3512.903076171875,671.3521728515625L3512.903076171875,671.3521728515625" style="fill:#5ac5f2;fill-opacity:1">
      </path>
    </g>
  </g>
  <g id="shape-629608d1-82e1-5193-b834-c96f36cccf98" style="opacity:1">
    <g class="fills" id="fills-629608d1-82e1-5193-b834-c96f36cccf98">
      <path d="M3484.156494140625,681.6511840820312C3484.56787109375,681.2412719726562,3512.2080078125,671.2877807617188,3512.90234375,671.3518676757812C3512.50439453125,671.961669921875,3507.358154296875,673.620849609375,3506.3857421875,673.968017578125L3493.883544921875,678.4249877929688C3492.7392578125,678.8388061523438,3485.130126953125,681.6500854492188,3484.429931640625,681.7394409179688L3484.156494140625,681.6511840820312Z" fill-rule="nonzero" style="fill:#fdfeff;fill-opacity:1">
      </path>
    </g>
  </g>
  <g id="shape-bc199ca4-2ac8-58ad-aaf5-95d58f881567" style="opacity:1">
    <g class="fills" id="fills-bc199ca4-2ac8-58ad-aaf5-95d58f881567">
      <path d="M3395.14404296875,766.5214233398438C3397.73486328125,766.5675659179688,3400.405029296875,766.5136108398438,3403.0166015625,766.5184936523438C3407.424560546875,766.4993896484375,3412.02099609375,766.1734008789062,3415.47021484375,769.5225830078125C3419.295654296875,773.2368774414062,3419.346435546875,780.3081665039062,3415.4951171875,784.0449829101562C3412.697265625,786.7600708007812,3409.38671875,787.0903930664062,3405.6865234375,787.0625610351562L3400.448974609375,787.0792846679688C3400.314208984375,788.6640014648438,3400.369873046875,790.8007202148438,3400.3671875,792.4216918945312C3400.363525390625,794.7186889648438,3400.328857421875,797.1815185546875,3400.45068359375,799.4631958007812C3398.65185546875,799.4199829101562,3396.85205078125,799.4227294921875,3395.05322265625,799.472900390625L3395.059326171875,777.8369750976562C3395.056884765625,774.8242797851562,3394.882080078125,769.28369140625,3395.14404296875,766.5214233398438ZM3400.3974609375,782.4197998046875C3404.08984375,782.1675415039062,3408.929443359375,783.2310180664062,3411.521484375,780.8239135742188C3413.516357421875,778.8892822265625,3413.661865234375,774.94970703125,3411.72998046875,772.9495239257812C3409.337646484375,770.4728393554688,3403.78564453125,771.181884765625,3400.421875,771.2086181640625C3400.365966796875,774.9452514648438,3400.35791015625,778.6830444335938,3400.3974609375,782.4197998046875Z" fill-rule="nonzero" style="fill:#489ff4;fill-opacity:1">
      </path>
    </g>
  </g>
  <g id="shape-48a2ce3b-e378-514a-9ff2-0c0c6cbd5cdd" style="opacity:1">
    <g class="fills" id="fills-48a2ce3b-e378-514a-9ff2-0c0c6cbd5cdd">
      <path d="M3527.0048828125,766.5645751953125L3534.62353515625,766.5442504882812C3539.135498046875,766.5343627929688,3543.84912109375,766.0869140625,3547.389892578125,769.563232421875C3551.13671875,773.2327880859375,3551.17822265625,780.2958374023438,3547.431640625,783.9838256835938C3544.639404296875,786.7310180664062,3541.318359375,787.0571899414062,3537.642578125,787.0557861328125L3532.252685546875,787.0655517578125C3532.38623046875,790.9347534179688,3532.26953125,795.4994506835938,3532.2666015625,799.4146118164062L3527.0703125,799.4076538085938L3527.0048828125,766.5645751953125ZM3532.265380859375,782.4144287109375C3536.280517578125,782.1231689453125,3540.525390625,783.2841796875,3543.45947265625,780.8087768554688C3545.53662109375,778.4044799804688,3545.6328125,774.743408203125,3543.26904296875,772.6071166992188C3540.970458984375,770.5289916992188,3535.309326171875,771.2698974609375,3532.279296875,771.2162475585938L3532.265380859375,782.4144287109375Z" fill-rule="nonzero" style="fill:#2f2f82;fill-opacity:1">
      </path>
    </g>
  </g>
  <g id="shape-aa9348de-bce5-5fc5-b1b6-a4e1c7108c5f" style="opacity:1">
    <g class="fills" id="fills-aa9348de-bce5-5fc5-b1b6-a4e1c7108c5f">
      <path d="M3432.247314453125,774.9343872070312C3439.13525390625,774.6088256835938,3444.989013671875,779.9259033203125,3445.338134765625,786.8251953125C3445.687255859375,793.7244873046875,3440.400390625,799.6077270507812,3433.5146484375,799.9812622070312C3426.5947265625,800.3575439453125,3420.687255859375,795.029052734375,3420.33642578125,788.0949096679688C3419.985595703125,781.1607666015625,3425.324951171875,775.2616577148438,3432.247314453125,774.9343872070312ZM3433.58056640625,795.250732421875C3443.184326171875,793.6575927734375,3441.689697265625,779.1063232421875,3432.21240234375,779.712646484375C3422.74609375,781.0465087890625,3423.64208984375,795.6214599609375,3433.58056640625,795.250732421875Z" fill-rule="nonzero" style="fill:#489ff4;fill-opacity:1">
      </path>
    </g>
  </g>
  <g id="shape-3623dda8-61a2-5100-becb-4483339250af" style="opacity:1">
    <g class="fills" id="fills-3623dda8-61a2-5100-becb-4483339250af">
      <path d="M3471.48583984375,774.992919921875C3473.962890625,775.09326171875,3476.069091796875,775.6725463867188,3477.8984375,777.4309692382812C3481.0966796875,780.5056762695312,3480.5439453125,784.9533081054688,3480.537841796875,788.993896484375C3480.51611328125,792.4826049804688,3480.521728515625,795.9712524414062,3480.5546875,799.4599609375C3478.897705078125,799.416748046875,3477.15478515625,799.4418334960938,3475.49072265625,799.4390258789062C3475.62353515625,797.23681640625,3475.491943359375,794.5927734375,3475.5302734375,792.3292846679688C3475.47900390625,789.9305419921875,3475.65966796875,787.4913940429688,3475.505859375,785.0982055664062C3475.21337890625,780.5488891601562,3471.880859375,778.6282348632812,3467.803955078125,780.2116088867188C3464.28564453125,782.140625,3465.017822265625,786.69970703125,3465.021484375,790.1828002929688C3465.019287109375,793.275634765625,3465.0341796875,796.3684692382812,3465.06640625,799.4599609375C3463.40673828125,799.416748046875,3461.67822265625,799.4432373046875,3460.012939453125,799.444580078125L3460.01611328125,775.5391235351562C3461.52685546875,775.482421875,3463.249267578125,775.5151977539062,3464.7763671875,775.5087890625C3464.837646484375,776.2919311523438,3464.786865234375,777.5675659179688,3464.779052734375,778.3870849609375C3466.685302734375,775.796875,3468.373291015625,775.2025756835938,3471.48583984375,774.992919921875Z" fill-rule="nonzero" style="fill:#489ff4;fill-opacity:1">
      </path>
    </g>
  </g>
  <g id="shape-b20e17d0-7c30-5bda-9c4e-12b6e290d121" style="opacity:1">
    <g class="fills" id="fills-b20e17d0-7c30-5bda-9c4e-12b6e290d121">
      <path d="M3565.247802734375,775.5040283203125C3566.899169921875,775.5466918945312,3568.663330078125,775.513671875,3570.322998046875,775.5114135742188C3570.412109375,780.5114135742188,3570.157470703125,786.1144409179688,3570.46923828125,791.094482421875C3570.914306640625,793.7468872070312,3572.965087890625,795.3427734375,3575.494384765625,795.271728515625C3581.684326171875,795.1002807617188,3580.860595703125,789.1654663085938,3580.83984375,784.7764282226562L3580.82861328125,775.5108642578125L3585.8232421875,775.5211791992188C3585.771728515625,777.9259033203125,3585.801025390625,780.4291381835938,3585.79833984375,782.841796875L3585.799560546875,799.4321899414062C3584.258056640625,799.3820190429688,3582.598388671875,799.423828125,3581.047119140625,799.43359375L3581.06787109375,796.4940795898438C3579.62939453125,798.8607177734375,3577.287841796875,799.8126831054688,3574.61376953125,799.9116821289062C3570.6806640625,800.3019409179688,3566.24658203125,797.273193359375,3565.660888671875,793.1531372070312C3564.887451171875,787.7047729492188,3565.3701171875,781.0884399414062,3565.247802734375,775.5040283203125Z" fill-rule="nonzero" style="fill:#2f54a8;fill-opacity:1">
      </path>
    </g>
  </g>
  <g id="shape-afd55328-49cf-5355-965e-a5dc34436641" style="opacity:1">
    <g class="fills" id="fills-afd55328-49cf-5355-965e-a5dc34436641">
      <path d="M3502.984619140625,775.4931030273438C3509.091064453125,775.6150512695312,3515.489501953125,775.5234985351562,3521.612548828125,775.5137329101562C3521.59033203125,776.8749389648438,3521.5859375,778.2362060546875,3521.5986328125,779.5979614257812C3517.68359375,784.628173828125,3513.2578125,789.8981323242188,3509.2119140625,794.8628540039062L3521.655517578125,794.8530883789062L3521.65966796875,799.4707641601562C3515.37255859375,799.3104858398438,3508.644287109375,799.4317626953125,3502.3251953125,799.4359130859375L3502.33642578125,795.2559204101562L3514.91357421875,780.0607299804688C3511.1708984375,780.1820068359375,3506.75634765625,780.0844116210938,3502.97216796875,780.0844116210938L3502.984619140625,775.4931030273438Z" fill-rule="nonzero" style="fill:#489ff4;fill-opacity:1">
      </path>
    </g>
  </g>
  <g id="shape-92a013c7-f6f5-5ff2-87a7-3ff266da9375" style="opacity:1">
    <g class="fills" id="fills-92a013c7-f6f5-5ff2-87a7-3ff266da9375">
      <path d="M3598.210205078125,775.1166381835938C3603.1923828125,774.4420166015625,3607.22412109375,776.4946899414062,3609.2861328125,781.1078491210938C3607.999267578125,781.7197265625,3606.7080078125,782.3204345703125,3605.411376953125,782.9086303710938C3604.24267578125,780.7705688476562,3602.65673828125,779.3056640625,3600.085693359375,779.1885986328125C3598.251953125,779.10498046875,3596.15380859375,779.8826904296875,3596.242919921875,782.0918579101562C3596.3193359375,783.9971923828125,3599.15478515625,784.751220703125,3600.6337890625,785.158203125C3606.926513671875,786.2955932617188,3612.296875,790.9996337890625,3607.50244140625,797.33447265625C3606.141845703125,799.1338500976562,3602.953125,799.8460693359375,3600.56005859375,799.9227294921875C3595.7197265625,799.9310913085938,3591.949462890625,797.8167114257812,3590.110107421875,793.2520141601562L3593.987548828125,791.4595947265625C3595.519287109375,794.3823852539062,3598.161376953125,796.438232421875,3601.514404296875,795.748291015625C3605.36962890625,794.953857421875,3605.227783203125,791.0902099609375,3601.30859375,790.08251953125C3597.81640625,789.0650634765625,3592.447509765625,788.218994140625,3591.534912109375,783.9400634765625C3590.48291015625,779.0115966796875,3593.57568359375,775.8359375,3598.210205078125,775.1166381835938Z" fill-rule="nonzero" style="fill:#3773c7;fill-opacity:1">
      </path>
    </g>
  </g>
  <g id="shape-0bfdcfa2-7e25-5794-a405-2ef5533ac253" style="opacity:1">
    <g class="fills" id="fills-0bfdcfa2-7e25-5794-a405-2ef5533ac253">
      <path d="M3488.20556640625,770.05224609375L3493.2724609375,770.0531005859375C3493.263427734375,771.8710327148438,3493.263916015625,773.68896484375,3493.274169921875,775.5067138671875L3498.694580078125,775.5288696289062C3498.672607421875,777.032958984375,3498.695068359375,778.5870361328125,3498.69775390625,780.0950927734375L3493.253173828125,780.0895385742188C3493.290283203125,783.6535034179688,3493.178955078125,787.2508544921875,3493.239501953125,790.8162231445312C3493.313232421875,795.1550903320312,3495.24853515625,795.35302734375,3498.86572265625,795.1258544921875L3498.858154296875,798.80126953125L3498.85546875,799.3267822265625C3498.421875,799.6640625,3497.185791015625,799.6626586914062,3496.6328125,799.6654663085938C3494.3388671875,799.6849365234375,3492.025634765625,799.3351440429688,3490.33056640625,797.6290893554688C3487.719482421875,795.003173828125,3488.2158203125,790.884521484375,3488.23486328125,787.4808349609375L3488.2294921875,780.088134765625L3483.955078125,780.0895385742188C3483.936279296875,778.5703125,3483.955810546875,777.0496826171875,3484.013671875,775.5301513671875C3487.99951171875,775.4096069335938,3488.30126953125,773.5965576171875,3488.20556640625,770.05224609375Z" fill-rule="nonzero" style="fill:#489ff4;fill-opacity:1">
      </path>
    </g>
  </g>
  <g id="shape-4e6b204c-8260-5be9-8271-6607c27558ba" style="opacity:1">
    <g class="fills" id="fills-4e6b204c-8260-5be9-8271-6607c27558ba">
      <path d="M3554.97802734375,765.99267578125L3560.035400390625,765.980712890625C3560.181396484375,774.5281982421875,3559.930908203125,783.1630249023438,3560.021484375,791.7195434570312C3560.04638671875,794.08203125,3560.15625,797.1121826171875,3559.989501953125,799.4286499023438C3558.36865234375,799.3854370117188,3556.636474609375,799.413330078125,3555.00732421875,799.4105224609375L3554.97802734375,765.99267578125Z" fill-rule="nonzero" style="fill:#2e4499;fill-opacity:1">
      </path>
    </g>
  </g>
  <g id="shape-604a96ce-264c-5c7d-8691-fdc33aec31fb" style="opacity:1">
    <g class="fills" id="fills-604a96ce-264c-5c7d-8691-fdc33aec31fb">
      <path d="M3449.187255859375,775.5132446289062L3454.220947265625,775.5232543945312C3454.390380859375,777.19140625,3454.272705078125,781.57763671875,3454.271240234375,783.4439697265625L3454.27978515625,799.4642944335938C3452.60693359375,799.4085083007812,3450.865234375,799.4447631835938,3449.186279296875,799.4559326171875L3449.187255859375,775.5132446289062Z" fill-rule="nonzero" style="fill:#489ff4;fill-opacity:1">
      </path>
    </g>
  </g>
  <g id="shape-0870ab3f-d8bb-58a7-8930-9da90876c33f" style="opacity:1">
    <g class="fills" id="fills-0870ab3f-d8bb-58a7-8930-9da90876c33f">
      <path d="M3449.178466796875,766.548828125L3454.203369140625,766.5291748046875C3454.369384765625,767.97314453125,3454.282470703125,770.7674560546875,3454.278564453125,772.311767578125C3452.59228515625,772.2918090820312,3450.882080078125,772.3048095703125,3449.193603515625,772.3026733398438C3449.21142578125,770.4033813476562,3449.18408203125,768.4523315429688,3449.178466796875,766.548828125Z" fill-rule="nonzero" style="fill:#489ff4;fill-opacity:1">
      </path>
    </g>
  </g>
  <g id="shape-062a447c-0a20-505a-a23c-13680d9097a3" style="opacity:1">
    <g class="fills" id="fills-062a447c-0a20-505a-a23c-13680d9097a3">
      <path d="M3520.86279296875,676.54345703125C3521.714111328125,672.5313720703125,3523.265380859375,669.3615112304688,3526.804931640625,666.9237060546875C3528.32958984375,665.8743286132812,3532.281005859375,664.683349609375,3534.16748046875,663.9776611328125L3534.173095703125,692.71484375L3534.166015625,701.804931640625C3534.146484375,706.7589111328125,3534.413818359375,711.290283203125,3529.478759765625,714.2455444335938C3528.16259765625,715.181884765625,3524.520263671875,716.2332763671875,3522.8564453125,716.8759155273438C3517.98681640625,718.757568359375,3512.38427734375,720.3801879882812,3507.605224609375,722.3128662109375C3507.456298828125,718.7745361328125,3507.557861328125,714.6341552734375,3507.557861328125,711.0519409179688C3507.6552734375,707.7662353515625,3507.52734375,704.4114990234375,3507.593994140625,701.1180419921875C3507.623291015625,699.6600341796875,3507.642822265625,698.0059814453125,3507.4423828125,696.5738525390625C3507.2685546875,695.3259887695312,3506.9052734375,694.1119995117188,3506.3642578125,692.9742431640625C3505.4931640625,691.1257934570312,3504.122802734375,689.5581665039062,3502.40869140625,688.447998046875C3500.373291015625,687.101318359375,3496.9970703125,686.1082763671875,3494.615234375,685.2832641601562C3491.67041015625,684.275390625,3488.73095703125,683.2516479492188,3485.797119140625,682.212158203125L3484.4306640625,681.7396850585938C3485.131103515625,681.6503295898438,3492.739990234375,678.8390502929688,3493.884521484375,678.4252319335938L3506.386474609375,673.96826171875C3507.35888671875,673.62109375,3512.50537109375,671.9619140625,3512.903076171875,671.3521118164062L3512.98388671875,671.3549194335938C3514.4599609375,671.2222290039062,3514.91357421875,670.9281005859375,3516.489990234375,671.3072509765625C3519.216796875,671.9630126953125,3520.37158203125,673.9342651367188,3520.86279296875,676.54345703125Z" fill-rule="nonzero" style="fill:#58c0f2;fill-opacity:1">
      </path>
    </g>
  </g>
  <g id="shape-0de73e36-d97f-56dc-82dd-c01eb5843968" style="opacity:1">
    <g class="fills" id="fills-0de73e36-d97f-56dc-82dd-c01eb5843968">
      <path d="M3476.1630859375,670.0328369140625C3487.7763671875,665.7288818359375,3499.71728515625,661.56689453125,3511.395751953125,657.4155883789062L3521.04150390625,653.9412841796875C3524.15234375,652.8212280273438,3527.33984375,651.0962524414062,3530.5703125,652.5686645507812C3532.061767578125,653.238525390625,3533.21240234375,654.4922485351562,3533.753662109375,656.0364379882812C3534.407470703125,657.864501953125,3534.193359375,661.5319213867188,3534.173828125,663.6069946289062C3531.005859375,664.7872314453125,3527.431640625,666.7152709960938,3524.36669921875,665.274658203125C3522.894775390625,664.571044921875,3521.7705078125,663.3013305664062,3521.24609375,661.75390625C3521.134765625,661.4283447265625,3521.035888671875,661.0984497070312,3520.94970703125,660.764892578125C3520.43359375,664.5872192382812,3519.449951171875,666.9727172851562,3516.33056640625,669.5751953125C3515.35107421875,670.391845703125,3513.275390625,671.0215454101562,3512.983154296875,671.35498046875L3512.902587890625,671.3521728515625C3512.504638671875,671.9619750976562,3507.3583984375,673.6211547851562,3506.3857421875,673.9683227539062L3493.8837890625,678.42529296875C3492.7392578125,678.839111328125,3485.13037109375,681.650390625,3484.429931640625,681.73974609375L3484.15673828125,681.6514892578125C3481.781494140625,680.8439331054688,3476.928466796875,679.5553588867188,3475.26611328125,677.873779296875C3472.72412109375,675.3020629882812,3473.798095703125,672.313232421875,3476.1630859375,670.0328369140625Z" fill-rule="nonzero" style="fill:#5ac5f2;fill-opacity:1">
      </path>
    </g>
  </g>
</svg>