<?xml version="1.0" encoding="UTF-8"?>
<svg id="Layer_1" data-name="Layer 1" xmlns="http://www.w3.org/2000/svg" xmlns:xlink="http://www.w3.org/1999/xlink" viewBox="0 0 1920 534.081023">
  <defs>
    <style>
      .cls-1 {
        fill: url(#linear-gradient-2);
      }

      .cls-2 {
        fill: #fff;
      }

      .cls-3 {
        fill: none;
      }

      .cls-4 {
        fill: url(#linear-gradient-3);
      }

      .cls-5 {
        fill: url(#linear-gradient);
      }

      .cls-6 {
        fill: #01a2fb;
      }

      .cls-7 {
        clip-path: url(#clippath);
      }
    </style>
    <linearGradient id="linear-gradient" x1="-55.377734" y1="181.872779" x2="242.385257" y2="479.63577" gradientUnits="userSpaceOnUse">
      <stop offset=".146225" stop-color="#3f0059"/>
      <stop offset=".26658" stop-color="#380f68"/>
      <stop offset=".500993" stop-color="#293992"/>
      <stop offset=".823276" stop-color="#0f7ad3"/>
      <stop offset="1" stop-color="#01a2fb"/>
    </linearGradient>
    <linearGradient id="linear-gradient-2" x1="114.577682" y1="282.897366" x2="363.230489" y2="34.24456" gradientUnits="userSpaceOnUse">
      <stop offset=".285333" stop-color="#01a2fb"/>
      <stop offset=".822096" stop-color="#02eff4"/>
    </linearGradient>
    <clipPath id="clippath">
      <path class="cls-3" d="M1388.286428,160.01953h78.072741c43.213361,0,73.175151,25.064201,73.175151,67.125055,0,41.485729-29.96179,66.837492-73.175151,66.837492h-44.078305v80.665317h-33.994436v-214.627865ZM1467.224113,263.732725c23.04675,0,38.603335-14.405206,38.603335-36.875702,0-22.471625-15.556585-36.58814-38.603335-36.58814h-44.943249v73.463842h44.943249ZM1567.372431,159.726615h32.554366v214.92078h-32.554366v-214.92078ZM1637.096829,315.012505v-96.223029h32.554366v93.341763c0,21.606681,14.116515,35.723196,34.283126,35.723196,20.454174,0,34.858252-14.404078,34.858252-37.163265v-91.901693h32.266803v155.857919h-30.825606v-19.301667c-8.642672,14.691641-24.776638,22.759187-44.366996,22.759187-35.434505,0-58.769946-25.640454-58.769946-63.09241ZM1794.967687,334.602863l25.064201-11.811502c8.355109,17.861598,23.911694,28.808156,42.061982,28.808156,15.269022,0,25.928017-7.490166,25.928017-19.301667,0-11.235248-10.947686-16.132838-20.742865-18.725414l-24.487947-6.91504c-27.080523-7.777728-40.044532-23.623003-40.044532-44.653431,0-27.945467,23.624131-46.670881,55.602244-46.670881,28.520593,0,52.432287,14.692768,61.651213,39.755841l-25.064201,11.812629c-6.337659-14.981459-20.454174-24.487947-36.875702-24.487947-14.404078,0-23.335441,7.202603-23.335441,18.149161,0,10.947686,10.083869,15.557712,19.877921,18.437851l25.352891,7.491293c25.639326,7.490166,40.044532,23.335441,40.044532,44.942121,0,27.656777-23.335441,46.670881-57.90613,46.670881-31.978113,0-57.618567-16.997782-67.126183-43.502052Z"/>
    </clipPath>
    <linearGradient id="linear-gradient-3" x1="1443.764689" y1="475.565225" x2="1861.755895" y2="57.57402" gradientUnits="userSpaceOnUse">
      <stop offset="0" stop-color="#3f0059"/>
      <stop offset="1" stop-color="#01a2fb"/>
    </linearGradient>
  </defs>
  <g>
    <path class="cls-5" d="M0,159.612327l.31716,276.547155c.027109,23.637446,14.944497,44.693299,37.235355,52.557602l123.014601,43.244244c23.835784,8.409359,48.833781-9.247234,48.877138-34.522914l-.000095-245.71898c.046934-27.360603-17.275164-51.7358-43.129084-60.690106l-125.334221-44.105178.196246.048793c-10.308181-4.009406-17.614134-14.028934-17.614134-25.754859,0-10.892892,6.304768-20.313227,15.464193-24.810895l-.014015-.03924-2.011484.718064C14.799182,105.011898-.012721,126.052576.014407,149.627328l.292212,253.932628"/>
    <path class="cls-1" d="M303.297586,2.023223L39.013013,96.367895h0l.006213.016729.008125.022464h0c-4.007223,1.967764-7.468137,4.877589-10.093575,8.440787-.375199.509506-.733192,1.031439-1.0735,1.566755-2.721031,4.278705-4.297345,9.357038-4.297345,14.8034,0,.001912.000478.003824.000478.005736,0,1.02188.074562,2.025598.183537,3.018322.023898.22034.047796.441158.076952.659586.130961.977908.301115,1.943866.53197,2.886405.022464.091768.052098.180191.075518.271482.231333.906214.51094,1.792831.82974,2.66033.04923.133829.094158.268614.1453.401487.360382.933935.765215,1.845406,1.22119,2.727244.033457.065003.070738.128093.104673.193096.971216,1.843017,2.139352,3.566065,3.485768,5.133776.015295.017685.031067.035369.046362.053054,1.378439,1.596389,2.933723,3.035529,4.639087,4.283006,1.921402,1.406161,4.020128,2.584812,6.273713,3.461392l-.196442-.048752,125.334214,44.105262c25.853853,8.954117,43.176106,33.329637,43.129266,60.690022v126.044463l104.187796-37.004199c20.950454-7.440893,34.960917-27.248542,34.999632-49.480887l.442114-256.932581c.040627-23.713545-23.443019-40.295437-45.776213-32.323052Z"/>
    <path class="cls-2" d="M235.578843,104.465407c3.00317-.934084,6.196181-1.437283,9.506721-1.437283,17.548088,0,31.793967,14.138439,31.967753,31.645433l.067778.008869c3.404454-25.996243,19.373779-48.039051,41.611602-59.832051l-.092462-.174352c-2.256404.465805-4.593616.710532-6.987987.710532-17.876482,0-32.566816-13.64152-34.229047-31.082605l.005598.000019c.000354.087569.000531.175179.000531.262831,0,27.484638-17.424931,50.899465-41.830235,59.799924l-.020252.098683Z"/>
    <polygon class="cls-2" points="349.019312 66.057536 349.026481 61.885417 77.000378 158.995092 76.147218 159.299075 82.029959 161.369601 349.019312 66.057536"/>
  </g>
  <g>
    <g>
      <path class="cls-6" d="M523.600601,160.01953h78.072741c43.213925,0,73.175151,25.064201,73.175151,67.125055,0,41.485729-29.961226,66.837492-73.175151,66.837492h-44.077741v80.665317h-33.995v-214.627865ZM602.537721,263.732725c23.047314,0,38.604462-14.405206,38.604462-36.875702,0-22.471625-15.557148-36.58814-38.604462-36.58814h-44.942121v73.463842h44.942121Z"/>
      <path class="cls-6" d="M684.064035,296.574654c0-46.958444,35.723196-81.24157,81.530261-81.24157,45.518375,0,81.24157,34.283126,81.24157,81.24157,0,47.534697-36.587576,81.530261-81.24157,81.530261-45.230812,0-81.530261-34.571817-81.530261-81.530261ZM813.128994,296.574654c0-29.385537-20.454174-50.992217-47.534697-50.992217-27.369214,0-47.535261,21.606681-47.535261,50.992217s20.166047,51.27978,47.535261,51.27978c27.080523,0,47.534697-21.894243,47.534697-51.27978Z"/>
      <path class="cls-6" d="M875.081301,160.01953h32.554366v37.451956h-32.554366v-37.451956ZM875.081301,218.789476h32.554366v155.857919h-32.554366v-155.857919Z"/>
      <path class="cls-6" d="M945.665568,218.789476h31.113733v19.014105c8.930799-14.692768,24.776074-22.470497,44.078305-22.470497,33.994436,0,58.77051,24.199257,58.77051,58.482383v100.831928h-32.26624v-91.901693c0-23.04675-14.116515-37.163265-34.571253-37.163265-20.166047,0-34.570689,14.116515-34.570689,37.163265v91.901693h-32.554366v-155.857919Z"/>
      <path class="cls-6" d="M1128.028885,323.655177v-75.480165h-27.36865v-29.385537h4.321336c14.404642,0,23.047314-8.930235,23.047314-23.623003v-12.100192h32.55493v35.723196h35.434505v29.385537h-35.434505v74.040095c0,15.844147,7.201475,25.351763,25.928017,25.351763,2.881267,0,6.913912-.288691,10.658995-.863816v27.94434c-5.185152.863816-12.387755,1.72876-17.572907,1.72876-32.843057,0-51.569035-19.302795-51.569035-52.720977Z"/>
      <path class="cls-6" d="M1222.82143,347.854434l82.394077-99.679422h-78.072741v-29.385537h121.286102v26.505398l-80.95288,99.679422h81.24157v29.6731h-125.896129v-26.792961Z"/>
    </g>
    <g class="cls-7">
      <rect class="cls-4" x="1370.192896" y="131.145812" width="565.134791" height="270.84762"/>
    </g>
  </g>
</svg>